<svg xmlns="http://www.w3.org/2000/svg" viewBox="0 0 64 64" aria-labelledby="title"
aria-describedby="desc" role="img" xmlns:xlink="http://www.w3.org/1999/xlink">
  <title>Chef</title>
  <desc>A color styled icon from Orion Icon Library.</desc>
  <path data-name="layer3"
  d="M40.3 50.2A5.4 5.4 0 0 1 40 48v-2a17.3 17.3 0 0 0 4.8-8.2c3 0 3.7-4.2 3.7-5.2S49 28.1 46 28v-3s-8-3-15-3a56.2 56.2 0 0 0-13 2v4c-3 0-3.3 3.8-3.3 4.7s.7 5.3 3.8 5.3a17.1 17.1 0 0 0 5.5 9.1v.9a5.1 5.1 0 0 1-.4 2.5L32 54z"
  fill="#e8d4d4"></path>
  <path data-name="layer2" d="M32 38.8s-.7-2.8-3.3-2.8-3.7 4-3.7 4h14s-1-4-3.6-4-3.4 2.8-3.4 2.8z"
  fill="#64738f"></path>
  <path data-name="layer1" d="M40 6.9A9 9 0 0 0 24 7c-4-2-10-.7-10 4.2s4 4.1 4 7.2V24a44.5 44.5 0 0 1 14-2 28.6 28.6 0 0 1 14 3.4V18c0-1.8 4-3.5 4-7s-4.1-6.7-10-4.1zM13.6 55C2 57.2 2 62 2 62h60s0-4.4-12.4-7c-6.4-1.3-8.6-3.1-9.2-4.8L32 54l-8.4-3.5c-.8 1.6-3.1 3.2-10 4.5z"
  fill="#dfeef8"></path>
  <g data-name="opacity" opacity=".15">
    <path d="M18 18.4V24a34.2 34.2 0 0 1 5.7-1.3l.3-.7c0-5 2-7 3-8-2.4-3.2-1.6-9.1 1.5-11.2A8.9 8.9 0 0 0 24 7c-4-2-10-.7-10 4.2s4 4.1 4 7.2z"
    fill="#000064"></path>
    <path d="M22 32a25.6 25.6 0 0 1 1.7-9.3C20.4 23.3 18 24 18 24v4c-3 0-3.3 3.8-3.3 4.7s.7 5.3 3.8 5.3a17.1 17.1 0 0 0 5.5 9.1v.9a5.1 5.1 0 0 1-.4 2.5c-.8 1.5-3.1 3.2-10 4.5C2 57.2 2 62 2 62h9c0-2 6-4 10-5s6-5 6-5l2 1c4 2 6-1 7-5-12 4-14-10-14-16z"
    fill="#000064"></path>
  </g>
  <path data-name="stroke" d="M18 24v4c-3 0-3.3 3.8-3.3 4.7s.7 5.3 3.8 5.3a17.2 17.2 0 0 0 7.2 10.3m11.9 0A17.2 17.2 0 0 0 44.8 38c3 0 3.7-4.3 3.7-5.3S49 28.1 46 28v-2.6"
  fill="none" stroke="#2e4369" stroke-linecap="round" stroke-linejoin="round"
  stroke-width="2"></path>
  <path data-name="stroke" d="M24 47.1v.9c0 2 .6 4.9-10.4 7S2 62 2 62h60s0-4.4-12.4-7C40 53 40 50 40 48v-1.6M24 6.9c-4-2.1-10-.7-10 4.3s4 4.2 4 7.2V24a44.3 44.3 0 0 1 14-2 28.4 28.4 0 0 1 14 3.4V18c0-1.8 4-3.5 4-7s-4.1-6.7-10-4.1m-8 31.9s-.7-2.8-3.3-2.8-3.7 4-3.7 4h14s-1-4-3.6-4-3.4 2.8-3.4 2.8z"
  fill="none" stroke="#2e4369" stroke-linecap="round" stroke-linejoin="round"
  stroke-width="2"></path>
  <path data-name="stroke" fill="none" stroke="#2e4369" stroke-linecap="round"
  stroke-linejoin="round" stroke-width="2" d="M23.6 50.6L32 54l8.3-3.8M32 54v8m-9-51.9a9 9 0 0 1 17.9.1"></path>
</svg>